<?xml version="1.0" encoding="UTF-8" standalone="no"?>
<!DOCTYPE svg PUBLIC "-//W3C//DTD SVG 1.1//EN"
 "http://www.w3.org/Graphics/SVG/1.1/DTD/svg11.dtd">
<!-- Generated by graphviz version 2.47.3 (20210619.1520)
 -->
<!-- Title: dependencies Pages: 1 -->
<svg width="1968pt" height="247pt"
 viewBox="0.00 0.00 1968.00 246.80" xmlns="http://www.w3.org/2000/svg" xmlns:xlink="http://www.w3.org/1999/xlink">
<g id="graph0" class="graph" transform="scale(1 1) rotate(0) translate(4 242.8)">
<title>dependencies</title>
<polygon fill="white" stroke="transparent" points="-4,4 -4,-242.8 1964,-242.8 1964,4 -4,4"/>
<text text-anchor="middle" x="980" y="-8.2" font-family="sans-serif" font-size="14.00">dependencies</text>
<g id="clust1" class="cluster">
<title>cluster_AppModule</title>
<polygon fill="none" stroke="black" stroke-dasharray="1,5" points="8,-32.8 8,-230.8 1952,-230.8 1952,-32.8 8,-32.8"/>
</g>
<g id="clust15" class="cluster">
<title>cluster_AppModule_imports</title>
<polygon fill="none" stroke="black" points="1800,-40.8 1800,-92.8 1944,-92.8 1944,-40.8 1800,-40.8"/>
</g>
<g id="clust17" class="cluster">
<title>cluster_AppModule_bootstrap</title>
<polygon fill="none" stroke="black" points="982,-170.8 982,-222.8 1106,-222.8 1106,-170.8 982,-170.8"/>
</g>
<g id="clust2" class="cluster">
<title>cluster_AppModule_declarations</title>
<polygon fill="none" stroke="black" points="16,-40.8 16,-92.8 1792,-92.8 1792,-40.8 16,-40.8"/>
</g>
<!-- AlertasComponent -->
<g id="node1" class="node">
<title>AlertasComponent</title>
<polygon fill="#ffffb3" stroke="black" points="1783.75,-84.8 1662.25,-84.8 1662.25,-48.8 1783.75,-48.8 1783.75,-84.8"/>
<text text-anchor="middle" x="1723" y="-62.6" font-family="Times,serif" font-size="14.00">AlertasComponent</text>
</g>
<!-- AppModule -->
<g id="node13" class="node">
<title>AppModule</title>
<polygon fill="#8dd3c7" stroke="black" points="1085.66,-149.8 1082.66,-153.8 1061.66,-153.8 1058.66,-149.8 1002.34,-149.8 1002.34,-113.8 1085.66,-113.8 1085.66,-149.8"/>
<text text-anchor="middle" x="1044" y="-127.6" font-family="Times,serif" font-size="14.00">AppModule</text>
</g>
<!-- AlertasComponent&#45;&gt;AppModule -->
<g id="edge1" class="edge">
<title>AlertasComponent&#45;&gt;AppModule</title>
<path fill="none" stroke="black" d="M1723,-84.84C1723,-106.46 1723,-139.8 1723,-139.8 1723,-139.8 1095.71,-139.8 1095.71,-139.8"/>
<polygon fill="black" stroke="black" points="1095.71,-136.3 1085.71,-139.8 1095.71,-143.3 1095.71,-136.3"/>
</g>
<!-- AppComponent -->
<g id="node2" class="node">
<title>AppComponent</title>
<polygon fill="#ffffb3" stroke="black" points="1643.94,-84.8 1538.06,-84.8 1538.06,-48.8 1643.94,-48.8 1643.94,-84.8"/>
<text text-anchor="middle" x="1591" y="-62.6" font-family="Times,serif" font-size="14.00">AppComponent</text>
</g>
<!-- AppComponent&#45;&gt;AppModule -->
<g id="edge2" class="edge">
<title>AppComponent&#45;&gt;AppModule</title>
<path fill="none" stroke="black" d="M1591,-85.02C1591,-105.17 1591,-134.8 1591,-134.8 1591,-134.8 1096.01,-134.8 1096.01,-134.8"/>
<polygon fill="black" stroke="black" points="1096.01,-131.3 1086.01,-134.8 1096.01,-138.3 1096.01,-131.3"/>
</g>
<!-- CadastrarComponent -->
<g id="node3" class="node">
<title>CadastrarComponent</title>
<polygon fill="#ffffb3" stroke="black" points="1520.47,-84.8 1385.53,-84.8 1385.53,-48.8 1520.47,-48.8 1520.47,-84.8"/>
<text text-anchor="middle" x="1453" y="-62.6" font-family="Times,serif" font-size="14.00">CadastrarComponent</text>
</g>
<!-- CadastrarComponent&#45;&gt;AppModule -->
<g id="edge3" class="edge">
<title>CadastrarComponent&#45;&gt;AppModule</title>
<path fill="none" stroke="black" d="M1453,-85.02C1453,-103.63 1453,-129.8 1453,-129.8 1453,-129.8 1095.85,-129.8 1095.85,-129.8"/>
<polygon fill="black" stroke="black" points="1095.85,-126.3 1085.85,-129.8 1095.85,-133.3 1095.85,-126.3"/>
</g>
<!-- EntrarComponent -->
<g id="node4" class="node">
<title>EntrarComponent</title>
<polygon fill="#ffffb3" stroke="black" points="1367.31,-84.8 1250.69,-84.8 1250.69,-48.8 1367.31,-48.8 1367.31,-84.8"/>
<text text-anchor="middle" x="1309" y="-62.6" font-family="Times,serif" font-size="14.00">EntrarComponent</text>
</g>
<!-- EntrarComponent&#45;&gt;AppModule -->
<g id="edge4" class="edge">
<title>EntrarComponent&#45;&gt;AppModule</title>
<path fill="none" stroke="black" d="M1309,-84.83C1309,-101.86 1309,-124.8 1309,-124.8 1309,-124.8 1095.7,-124.8 1095.7,-124.8"/>
<polygon fill="black" stroke="black" points="1095.7,-121.3 1085.7,-124.8 1095.7,-128.3 1095.7,-121.3"/>
</g>
<!-- InicioComponent -->
<g id="node5" class="node">
<title>InicioComponent</title>
<polygon fill="#ffffb3" stroke="black" points="1232.99,-84.8 1119.01,-84.8 1119.01,-48.8 1232.99,-48.8 1232.99,-84.8"/>
<text text-anchor="middle" x="1176" y="-62.6" font-family="Times,serif" font-size="14.00">InicioComponent</text>
</g>
<!-- InicioComponent&#45;&gt;AppModule -->
<g id="edge5" class="edge">
<title>InicioComponent&#45;&gt;AppModule</title>
<path fill="none" stroke="black" d="M1176,-85.04C1176,-100.37 1176,-119.8 1176,-119.8 1176,-119.8 1095.77,-119.8 1095.77,-119.8"/>
<polygon fill="black" stroke="black" points="1095.77,-116.3 1085.77,-119.8 1095.77,-123.3 1095.77,-116.3"/>
</g>
<!-- MenuComponent -->
<g id="node6" class="node">
<title>MenuComponent</title>
<polygon fill="#ffffb3" stroke="black" points="1100.99,-84.8 987.01,-84.8 987.01,-48.8 1100.99,-48.8 1100.99,-84.8"/>
<text text-anchor="middle" x="1044" y="-62.6" font-family="Times,serif" font-size="14.00">MenuComponent</text>
</g>
<!-- MenuComponent&#45;&gt;AppModule -->
<g id="edge6" class="edge">
<title>MenuComponent&#45;&gt;AppModule</title>
<path fill="none" stroke="black" d="M1044,-84.91C1044,-84.91 1044,-103.79 1044,-103.79"/>
<polygon fill="black" stroke="black" points="1040.5,-103.79 1044,-113.79 1047.5,-103.79 1040.5,-103.79"/>
</g>
<!-- PostagemDeleteComponent -->
<g id="node7" class="node">
<title>PostagemDeleteComponent</title>
<polygon fill="#ffffb3" stroke="black" points="969.3,-84.8 796.7,-84.8 796.7,-48.8 969.3,-48.8 969.3,-84.8"/>
<text text-anchor="middle" x="883" y="-62.6" font-family="Times,serif" font-size="14.00">PostagemDeleteComponent</text>
</g>
<!-- PostagemDeleteComponent&#45;&gt;AppModule -->
<g id="edge7" class="edge">
<title>PostagemDeleteComponent&#45;&gt;AppModule</title>
<path fill="none" stroke="black" d="M883,-85.04C883,-100.37 883,-119.8 883,-119.8 883,-119.8 992.12,-119.8 992.12,-119.8"/>
<polygon fill="black" stroke="black" points="992.12,-123.3 1002.12,-119.8 992.12,-116.3 992.12,-123.3"/>
</g>
<!-- PostagemEditComponent -->
<g id="node8" class="node">
<title>PostagemEditComponent</title>
<polygon fill="#ffffb3" stroke="black" points="778.6,-84.8 619.4,-84.8 619.4,-48.8 778.6,-48.8 778.6,-84.8"/>
<text text-anchor="middle" x="699" y="-62.6" font-family="Times,serif" font-size="14.00">PostagemEditComponent</text>
</g>
<!-- PostagemEditComponent&#45;&gt;AppModule -->
<g id="edge8" class="edge">
<title>PostagemEditComponent&#45;&gt;AppModule</title>
<path fill="none" stroke="black" d="M699,-84.83C699,-101.86 699,-124.8 699,-124.8 699,-124.8 992.04,-124.8 992.04,-124.8"/>
<polygon fill="black" stroke="black" points="992.04,-128.3 1002.04,-124.8 992.04,-121.3 992.04,-128.3"/>
</g>
<!-- RodapeComponent -->
<g id="node9" class="node">
<title>RodapeComponent</title>
<polygon fill="#ffffb3" stroke="black" points="601.1,-84.8 476.9,-84.8 476.9,-48.8 601.1,-48.8 601.1,-84.8"/>
<text text-anchor="middle" x="539" y="-62.6" font-family="Times,serif" font-size="14.00">RodapeComponent</text>
</g>
<!-- RodapeComponent&#45;&gt;AppModule -->
<g id="edge9" class="edge">
<title>RodapeComponent&#45;&gt;AppModule</title>
<path fill="none" stroke="black" d="M539,-85.02C539,-103.63 539,-129.8 539,-129.8 539,-129.8 992.24,-129.8 992.24,-129.8"/>
<polygon fill="black" stroke="black" points="992.24,-133.3 1002.24,-129.8 992.24,-126.3 992.24,-133.3"/>
</g>
<!-- TemaComponent -->
<g id="node10" class="node">
<title>TemaComponent</title>
<polygon fill="#ffffb3" stroke="black" points="458.7,-84.8 345.3,-84.8 345.3,-48.8 458.7,-48.8 458.7,-84.8"/>
<text text-anchor="middle" x="402" y="-62.6" font-family="Times,serif" font-size="14.00">TemaComponent</text>
</g>
<!-- TemaComponent&#45;&gt;AppModule -->
<g id="edge10" class="edge">
<title>TemaComponent&#45;&gt;AppModule</title>
<path fill="none" stroke="black" d="M402,-85.02C402,-105.17 402,-134.8 402,-134.8 402,-134.8 991.88,-134.8 991.88,-134.8"/>
<polygon fill="black" stroke="black" points="991.88,-138.3 1001.88,-134.8 991.88,-131.3 991.88,-138.3"/>
</g>
<!-- TemaDeleteComponent -->
<g id="node11" class="node">
<title>TemaDeleteComponent</title>
<polygon fill="#ffffb3" stroke="black" points="327.74,-84.8 178.26,-84.8 178.26,-48.8 327.74,-48.8 327.74,-84.8"/>
<text text-anchor="middle" x="253" y="-62.6" font-family="Times,serif" font-size="14.00">TemaDeleteComponent</text>
</g>
<!-- TemaDeleteComponent&#45;&gt;AppModule -->
<g id="edge11" class="edge">
<title>TemaDeleteComponent&#45;&gt;AppModule</title>
<path fill="none" stroke="black" d="M253,-84.84C253,-106.46 253,-139.8 253,-139.8 253,-139.8 992.31,-139.8 992.31,-139.8"/>
<polygon fill="black" stroke="black" points="992.31,-143.3 1002.31,-139.8 992.31,-136.3 992.31,-143.3"/>
</g>
<!-- TemaEditComponent -->
<g id="node12" class="node">
<title>TemaEditComponent</title>
<polygon fill="#ffffb3" stroke="black" points="160.04,-84.8 23.96,-84.8 23.96,-48.8 160.04,-48.8 160.04,-84.8"/>
<text text-anchor="middle" x="92" y="-62.6" font-family="Times,serif" font-size="14.00">TemaEditComponent</text>
</g>
<!-- TemaEditComponent&#45;&gt;AppModule -->
<g id="edge12" class="edge">
<title>TemaEditComponent&#45;&gt;AppModule</title>
<path fill="none" stroke="black" d="M92,-84.89C92,-107.93 92,-144.8 92,-144.8 92,-144.8 992.17,-144.8 992.17,-144.8"/>
<polygon fill="black" stroke="black" points="992.17,-148.3 1002.17,-144.8 992.17,-141.3 992.17,-148.3"/>
</g>
<!-- AppComponent  -->
<g id="node15" class="node">
<title>AppComponent </title>
<polygon fill="#80b1d3" stroke="black" points="1098.44,-214.8 989.56,-214.8 989.56,-178.8 1098.44,-178.8 1098.44,-214.8"/>
<text text-anchor="middle" x="1044" y="-192.6" font-family="Times,serif" font-size="14.00">AppComponent </text>
</g>
<!-- AppModule&#45;&gt;AppComponent  -->
<g id="edge14" class="edge">
<title>AppModule&#45;&gt;AppComponent </title>
<path fill="none" stroke="black" stroke-dasharray="1,5" d="M1044,-149.91C1044,-149.91 1044,-168.79 1044,-168.79"/>
<polygon fill="black" stroke="black" points="1040.5,-168.79 1044,-178.79 1047.5,-168.79 1040.5,-168.79"/>
</g>
<!-- AppRoutingModule -->
<g id="node14" class="node">
<title>AppRoutingModule</title>
<polygon fill="#8dd3c7" stroke="black" points="1936.27,-84.8 1933.27,-88.8 1912.27,-88.8 1909.27,-84.8 1807.73,-84.8 1807.73,-48.8 1936.27,-48.8 1936.27,-84.8"/>
<text text-anchor="middle" x="1872" y="-62.6" font-family="Times,serif" font-size="14.00">AppRoutingModule</text>
</g>
<!-- AppRoutingModule&#45;&gt;AppModule -->
<g id="edge13" class="edge">
<title>AppRoutingModule&#45;&gt;AppModule</title>
<path fill="none" stroke="black" d="M1872,-84.89C1872,-107.93 1872,-144.8 1872,-144.8 1872,-144.8 1095.91,-144.8 1095.91,-144.8"/>
<polygon fill="black" stroke="black" points="1095.91,-141.3 1085.91,-144.8 1095.91,-148.3 1095.91,-141.3"/>
</g>
</g>
</svg>
